<svg width="209" height="176" viewBox="0 0 209 176" fill="none" xmlns="http://www.w3.org/2000/svg">
<rect width="209" height="176" fill="white"/>
<path d="M44 115.674C44 115.674 58.498 89.9669 90.288 85.0389C111.562 81.7389 135.641 77.2839 155.023 60.8059C117.238 57.9019 63.701 76.9099 44 115.674Z" fill="#5BB888"/>
<path d="M182.71 29.368C141.042 23.549 73.3808 50.917 47.6628 107.369C75.7458 64.106 109.307 59.904 128.964 56.329C162.272 50.268 182.71 29.368 182.71 29.368Z" fill="#307BBF"/>
<path d="M98.6808 89.2739C101.97 91.9689 106.887 98.4259 106.887 108.744C106.887 118.116 102.52 131.173 90.9588 131.173C81.3998 131.173 74.8438 121.449 74.8438 108.744C74.8438 99.9329 78.2318 94.5539 79.1998 93.1569C76.7468 93.3329 64.8008 98.2939 59.9828 101.913C59.7408 102.419 58.9818 105.499 58.9818 108.744C58.9818 128.885 69.5308 147.508 93.8298 147.508C117.689 147.508 132.55 128.258 132.55 107.358C132.55 92.6839 128.799 85.7209 127.105 84.5219C122.1 86.2489 115.698 88.1849 98.6808 89.2739Z" fill="#151A19"/>
</svg>
